<mxfile host="app.diagrams.net" agent="Mozilla/5.0 (Windows NT 10.0; Win64; x64) AppleWebKit/537.36 (KHTML, like Gecko) Chrome/135.0.0.0 Safari/537.36" version="25.0.1">
  <diagram name="Page-1" id="Ry5E4VyP3oIoueq6zQVK">
    <mxGraphModel grid="1" page="1" gridSize="10" guides="1" tooltips="1" connect="1" arrows="1" fold="1" pageScale="1" pageWidth="827" pageHeight="1169" math="0" shadow="0">
      <root>
        <mxCell id="0" />
        <mxCell id="1" parent="0" />
        <mxCell id="FKnu9fOOEgawx1uUUJKB-1" value="" style="rounded=0;whiteSpace=wrap;html=1;align=center;fillColor=#FFFFFF;strokeColor=#000000;strokeWidth=1;glass=0;shadow=0;fontColor=#000000;" vertex="1" parent="1">
          <mxGeometry x="90" y="120" width="410" height="540" as="geometry" />
        </mxCell>
        <mxCell id="FKnu9fOOEgawx1uUUJKB-2" value="" style="rounded=0;whiteSpace=wrap;html=1;align=center;fillColor=none;fontColor=#000000;" vertex="1" parent="1">
          <mxGeometry x="140" y="160" width="180" height="480" as="geometry" />
        </mxCell>
        <mxCell id="FKnu9fOOEgawx1uUUJKB-3" value="" style="rounded=0;whiteSpace=wrap;html=1;align=center;fillColor=#FFFFFF;fontColor=#000000;" vertex="1" parent="1">
          <mxGeometry x="190" y="560" width="100" height="70" as="geometry" />
        </mxCell>
        <mxCell id="FKnu9fOOEgawx1uUUJKB-4" value="" style="rounded=0;whiteSpace=wrap;html=1;align=center;fillColor=#FFFFFF;fontColor=#000000;" vertex="1" parent="1">
          <mxGeometry x="190" y="170" width="100" height="100" as="geometry" />
        </mxCell>
        <mxCell id="FKnu9fOOEgawx1uUUJKB-5" value="Layer 0" style="text;html=1;align=center;verticalAlign=middle;whiteSpace=wrap;rounded=0;fontStyle=1;fillColor=none;fontColor=#000000;" vertex="1" parent="1">
          <mxGeometry x="140" y="205" width="50" height="30" as="geometry" />
        </mxCell>
        <mxCell id="FKnu9fOOEgawx1uUUJKB-6" style="edgeStyle=orthogonalEdgeStyle;rounded=0;orthogonalLoop=1;jettySize=auto;html=1;exitX=0.5;exitY=1;exitDx=0;exitDy=0;entryX=0.5;entryY=0;entryDx=0;entryDy=0;fillColor=none;fontColor=#000000;" edge="1" parent="1" source="FKnu9fOOEgawx1uUUJKB-7" target="FKnu9fOOEgawx1uUUJKB-9">
          <mxGeometry relative="1" as="geometry" />
        </mxCell>
        <mxCell id="FKnu9fOOEgawx1uUUJKB-7" value="Conv2D" style="rounded=0;whiteSpace=wrap;html=1;fillColor=#FFFFFF;fontColor=#000000;" vertex="1" parent="1">
          <mxGeometry x="200" y="180" width="80" height="20" as="geometry" />
        </mxCell>
        <mxCell id="FKnu9fOOEgawx1uUUJKB-8" style="edgeStyle=orthogonalEdgeStyle;rounded=0;orthogonalLoop=1;jettySize=auto;html=1;exitX=0.5;exitY=1;exitDx=0;exitDy=0;entryX=0.5;entryY=0;entryDx=0;entryDy=0;fillColor=none;fontColor=#000000;" edge="1" parent="1" source="FKnu9fOOEgawx1uUUJKB-9" target="FKnu9fOOEgawx1uUUJKB-10">
          <mxGeometry relative="1" as="geometry" />
        </mxCell>
        <mxCell id="FKnu9fOOEgawx1uUUJKB-9" value="BatchNorm2d" style="rounded=0;whiteSpace=wrap;html=1;fillColor=#FFFFFF;fontColor=#000000;" vertex="1" parent="1">
          <mxGeometry x="200" y="210" width="80" height="20" as="geometry" />
        </mxCell>
        <mxCell id="FKnu9fOOEgawx1uUUJKB-10" value="ReLU" style="rounded=0;whiteSpace=wrap;html=1;fillColor=#FFFFFF;fontColor=#000000;" vertex="1" parent="1">
          <mxGeometry x="200" y="240" width="80" height="20" as="geometry" />
        </mxCell>
        <mxCell id="FKnu9fOOEgawx1uUUJKB-11" style="edgeStyle=orthogonalEdgeStyle;rounded=0;orthogonalLoop=1;jettySize=auto;html=1;exitX=0.5;exitY=1;exitDx=0;exitDy=0;entryX=0.5;entryY=0;entryDx=0;entryDy=0;fontColor=#000000;" edge="1" parent="1" source="FKnu9fOOEgawx1uUUJKB-12" target="FKnu9fOOEgawx1uUUJKB-45">
          <mxGeometry relative="1" as="geometry" />
        </mxCell>
        <mxCell id="FKnu9fOOEgawx1uUUJKB-12" value="Input&lt;div&gt;&lt;font style=&quot;font-size: 9px;&quot;&gt;(Mel Spectrogram)&lt;/font&gt;&lt;/div&gt;" style="rounded=0;whiteSpace=wrap;html=1;fontStyle=0;fillColor=#E6E6E6;fontColor=#000000;" vertex="1" parent="1">
          <mxGeometry x="200" y="80" width="80" height="30" as="geometry" />
        </mxCell>
        <mxCell id="FKnu9fOOEgawx1uUUJKB-13" value="&lt;p&gt;&lt;font&gt;B×C&lt;span style=&quot;background-color: transparent;&quot;&gt;×&lt;/span&gt;&lt;span style=&quot;background-color: transparent;&quot;&gt;T&lt;/span&gt;&lt;span style=&quot;background-color: transparent;&quot;&gt;×&lt;/span&gt;&lt;span style=&quot;background-color: transparent;&quot;&gt;F&lt;/span&gt;&lt;/font&gt;&lt;/p&gt;" style="text;html=1;align=center;verticalAlign=middle;whiteSpace=wrap;rounded=0;fillColor=none;fontColor=#000000;fontSize=9;" vertex="1" parent="1">
          <mxGeometry x="240" y="200" width="50" height="10" as="geometry" />
        </mxCell>
        <mxCell id="FKnu9fOOEgawx1uUUJKB-15" value="" style="rounded=0;whiteSpace=wrap;html=1;align=center;fillColor=#FFFFFF;fontColor=#000000;" vertex="1" parent="1">
          <mxGeometry x="190" y="280" width="100" height="100" as="geometry" />
        </mxCell>
        <mxCell id="FKnu9fOOEgawx1uUUJKB-16" value="Layer 1" style="text;html=1;align=center;verticalAlign=middle;whiteSpace=wrap;rounded=0;fontStyle=1;fillColor=none;fontColor=#000000;" vertex="1" parent="1">
          <mxGeometry x="140" y="315" width="50" height="30" as="geometry" />
        </mxCell>
        <mxCell id="FKnu9fOOEgawx1uUUJKB-17" style="edgeStyle=orthogonalEdgeStyle;rounded=0;orthogonalLoop=1;jettySize=auto;html=1;exitX=0.5;exitY=1;exitDx=0;exitDy=0;entryX=0.5;entryY=0;entryDx=0;entryDy=0;fillColor=none;fontColor=#000000;" edge="1" parent="1" source="FKnu9fOOEgawx1uUUJKB-18" target="FKnu9fOOEgawx1uUUJKB-20">
          <mxGeometry relative="1" as="geometry" />
        </mxCell>
        <mxCell id="FKnu9fOOEgawx1uUUJKB-18" value="Conv2D" style="rounded=0;whiteSpace=wrap;html=1;fillColor=#FFFFFF;fontColor=#000000;" vertex="1" parent="1">
          <mxGeometry x="200" y="290" width="80" height="20" as="geometry" />
        </mxCell>
        <mxCell id="FKnu9fOOEgawx1uUUJKB-19" style="edgeStyle=orthogonalEdgeStyle;rounded=0;orthogonalLoop=1;jettySize=auto;html=1;exitX=0.5;exitY=1;exitDx=0;exitDy=0;entryX=0.5;entryY=0;entryDx=0;entryDy=0;fillColor=none;fontColor=#000000;" edge="1" parent="1" source="FKnu9fOOEgawx1uUUJKB-20" target="FKnu9fOOEgawx1uUUJKB-21">
          <mxGeometry relative="1" as="geometry" />
        </mxCell>
        <mxCell id="FKnu9fOOEgawx1uUUJKB-20" value="BatchNorm2d" style="rounded=0;whiteSpace=wrap;html=1;fillColor=#FFFFFF;fontColor=#000000;" vertex="1" parent="1">
          <mxGeometry x="200" y="320" width="80" height="20" as="geometry" />
        </mxCell>
        <mxCell id="FKnu9fOOEgawx1uUUJKB-21" value="ReLU" style="rounded=0;whiteSpace=wrap;html=1;fillColor=#FFFFFF;fontColor=#000000;" vertex="1" parent="1">
          <mxGeometry x="200" y="350" width="80" height="20" as="geometry" />
        </mxCell>
        <mxCell id="FKnu9fOOEgawx1uUUJKB-22" value="&lt;p&gt;&lt;font&gt;B×C&lt;span style=&quot;background-color: transparent;&quot;&gt;×&lt;/span&gt;&lt;span style=&quot;background-color: transparent;&quot;&gt;T&lt;/span&gt;&lt;span style=&quot;background-color: transparent;&quot;&gt;×&lt;/span&gt;&lt;span style=&quot;background-color: transparent;&quot;&gt;F&lt;/span&gt;&lt;/font&gt;&lt;/p&gt;" style="text;html=1;align=center;verticalAlign=middle;whiteSpace=wrap;rounded=0;fillColor=none;fontColor=#000000;fontSize=9;" vertex="1" parent="1">
          <mxGeometry x="240" y="310" width="50" height="10" as="geometry" />
        </mxCell>
        <mxCell id="FKnu9fOOEgawx1uUUJKB-24" style="edgeStyle=orthogonalEdgeStyle;rounded=0;orthogonalLoop=1;jettySize=auto;html=1;fillColor=none;fontColor=#000000;" edge="1" parent="1" source="FKnu9fOOEgawx1uUUJKB-10" target="FKnu9fOOEgawx1uUUJKB-18">
          <mxGeometry relative="1" as="geometry" />
        </mxCell>
        <mxCell id="FKnu9fOOEgawx1uUUJKB-25" value="" style="rounded=0;whiteSpace=wrap;html=1;align=center;fillColor=#FFFFFF;fontColor=#000000;" vertex="1" parent="1">
          <mxGeometry x="190" y="390" width="100" height="160" as="geometry" />
        </mxCell>
        <mxCell id="FKnu9fOOEgawx1uUUJKB-26" style="edgeStyle=orthogonalEdgeStyle;rounded=0;orthogonalLoop=1;jettySize=auto;html=1;exitX=0.5;exitY=1;exitDx=0;exitDy=0;entryX=0.5;entryY=0;entryDx=0;entryDy=0;fillColor=none;fontColor=#000000;" edge="1" parent="1" source="FKnu9fOOEgawx1uUUJKB-27" target="FKnu9fOOEgawx1uUUJKB-29">
          <mxGeometry relative="1" as="geometry" />
        </mxCell>
        <mxCell id="FKnu9fOOEgawx1uUUJKB-27" value="MaxPool2d" style="rounded=0;whiteSpace=wrap;html=1;fillColor=#FFFFFF;fontColor=#000000;" vertex="1" parent="1">
          <mxGeometry x="200" y="400" width="80" height="20" as="geometry" />
        </mxCell>
        <mxCell id="FKnu9fOOEgawx1uUUJKB-28" style="edgeStyle=orthogonalEdgeStyle;rounded=0;orthogonalLoop=1;jettySize=auto;html=1;exitX=0.5;exitY=1;exitDx=0;exitDy=0;entryX=0.5;entryY=0;entryDx=0;entryDy=0;fillColor=none;fontColor=#000000;" edge="1" parent="1" source="FKnu9fOOEgawx1uUUJKB-29" target="FKnu9fOOEgawx1uUUJKB-31">
          <mxGeometry relative="1" as="geometry" />
        </mxCell>
        <mxCell id="FKnu9fOOEgawx1uUUJKB-29" value="Dropout" style="rounded=0;whiteSpace=wrap;html=1;fillColor=#FFFFFF;fontColor=#000000;" vertex="1" parent="1">
          <mxGeometry x="200" y="430" width="80" height="20" as="geometry" />
        </mxCell>
        <mxCell id="FKnu9fOOEgawx1uUUJKB-30" style="edgeStyle=orthogonalEdgeStyle;rounded=0;orthogonalLoop=1;jettySize=auto;html=1;exitX=0.5;exitY=1;exitDx=0;exitDy=0;entryX=0.5;entryY=0;entryDx=0;entryDy=0;fillColor=none;fontColor=#000000;" edge="1" parent="1" source="FKnu9fOOEgawx1uUUJKB-31" target="FKnu9fOOEgawx1uUUJKB-35">
          <mxGeometry relative="1" as="geometry" />
        </mxCell>
        <mxCell id="FKnu9fOOEgawx1uUUJKB-31" value="Conv2d" style="rounded=0;whiteSpace=wrap;html=1;fillColor=#FFFFFF;fontColor=#000000;" vertex="1" parent="1">
          <mxGeometry x="200" y="460" width="80" height="20" as="geometry" />
        </mxCell>
        <mxCell id="FKnu9fOOEgawx1uUUJKB-32" style="edgeStyle=orthogonalEdgeStyle;rounded=0;orthogonalLoop=1;jettySize=auto;html=1;fillColor=none;fontColor=#000000;" edge="1" parent="1" source="FKnu9fOOEgawx1uUUJKB-21" target="FKnu9fOOEgawx1uUUJKB-27">
          <mxGeometry relative="1" as="geometry" />
        </mxCell>
        <mxCell id="FKnu9fOOEgawx1uUUJKB-33" value="Layer 2" style="text;html=1;align=center;verticalAlign=middle;whiteSpace=wrap;rounded=0;fontStyle=1;fillColor=none;fontColor=#000000;" vertex="1" parent="1">
          <mxGeometry x="140" y="450" width="50" height="30" as="geometry" />
        </mxCell>
        <mxCell id="FKnu9fOOEgawx1uUUJKB-34" style="edgeStyle=orthogonalEdgeStyle;rounded=0;orthogonalLoop=1;jettySize=auto;html=1;exitX=0.5;exitY=1;exitDx=0;exitDy=0;entryX=0.5;entryY=0;entryDx=0;entryDy=0;fillColor=none;fontColor=#000000;" edge="1" parent="1" source="FKnu9fOOEgawx1uUUJKB-35" target="FKnu9fOOEgawx1uUUJKB-37">
          <mxGeometry relative="1" as="geometry" />
        </mxCell>
        <mxCell id="FKnu9fOOEgawx1uUUJKB-35" value="BatchNorm2d" style="rounded=0;whiteSpace=wrap;html=1;fillColor=#FFFFFF;fontColor=#000000;" vertex="1" parent="1">
          <mxGeometry x="200" y="490" width="80" height="20" as="geometry" />
        </mxCell>
        <mxCell id="FKnu9fOOEgawx1uUUJKB-36" style="edgeStyle=orthogonalEdgeStyle;rounded=0;orthogonalLoop=1;jettySize=auto;html=1;fillColor=none;fontColor=#000000;" edge="1" parent="1" source="FKnu9fOOEgawx1uUUJKB-37" target="FKnu9fOOEgawx1uUUJKB-39">
          <mxGeometry relative="1" as="geometry" />
        </mxCell>
        <mxCell id="FKnu9fOOEgawx1uUUJKB-37" value="ReLU" style="rounded=0;whiteSpace=wrap;html=1;fillColor=#FFFFFF;fontColor=#000000;" vertex="1" parent="1">
          <mxGeometry x="200" y="520" width="80" height="20" as="geometry" />
        </mxCell>
        <mxCell id="FKnu9fOOEgawx1uUUJKB-38" style="edgeStyle=orthogonalEdgeStyle;rounded=0;orthogonalLoop=1;jettySize=auto;html=1;exitX=0.5;exitY=1;exitDx=0;exitDy=0;entryX=0.5;entryY=0;entryDx=0;entryDy=0;fillColor=none;fontColor=#000000;" edge="1" parent="1" source="FKnu9fOOEgawx1uUUJKB-39" target="FKnu9fOOEgawx1uUUJKB-41">
          <mxGeometry relative="1" as="geometry" />
        </mxCell>
        <mxCell id="FKnu9fOOEgawx1uUUJKB-39" value="MaxPool2d" style="rounded=0;whiteSpace=wrap;html=1;fillColor=#FFFFFF;fontColor=#000000;" vertex="1" parent="1">
          <mxGeometry x="200" y="570" width="80" height="20" as="geometry" />
        </mxCell>
        <mxCell id="FKnu9fOOEgawx1uUUJKB-40" style="edgeStyle=orthogonalEdgeStyle;rounded=0;orthogonalLoop=1;jettySize=auto;html=1;exitX=0.5;exitY=1;exitDx=0;exitDy=0;entryX=0.5;entryY=0;entryDx=0;entryDy=0;fillColor=none;fontColor=#000000;" edge="1" parent="1" source="FKnu9fOOEgawx1uUUJKB-41" target="FKnu9fOOEgawx1uUUJKB-56">
          <mxGeometry relative="1" as="geometry">
            <Array as="points">
              <mxPoint x="240" y="650" />
              <mxPoint x="340" y="650" />
              <mxPoint x="340" y="490" />
              <mxPoint x="410" y="490" />
            </Array>
          </mxGeometry>
        </mxCell>
        <mxCell id="FKnu9fOOEgawx1uUUJKB-41" value="Dropout" style="rounded=0;whiteSpace=wrap;html=1;fillColor=#FFFFFF;fontColor=#000000;" vertex="1" parent="1">
          <mxGeometry x="200" y="600" width="80" height="20" as="geometry" />
        </mxCell>
        <mxCell id="FKnu9fOOEgawx1uUUJKB-42" value="&lt;p&gt;&lt;font&gt;B×2C&lt;/font&gt;&lt;span style=&quot;background-color: transparent;&quot;&gt;×&lt;/span&gt;&lt;span style=&quot;background-color: transparent;&quot;&gt;T&lt;/span&gt;&lt;span style=&quot;background-color: transparent;&quot;&gt;×(&lt;/span&gt;&lt;span style=&quot;background-color: transparent;&quot;&gt;F//4)&lt;/span&gt;&lt;/p&gt;" style="text;html=1;align=center;verticalAlign=middle;whiteSpace=wrap;rounded=0;fillColor=none;fontColor=#000000;fontSize=9;" vertex="1" parent="1">
          <mxGeometry x="250" y="590" width="50" height="10" as="geometry" />
        </mxCell>
        <mxCell id="FKnu9fOOEgawx1uUUJKB-43" value="Layer 3" style="text;html=1;align=center;verticalAlign=middle;whiteSpace=wrap;rounded=0;fontStyle=1;fillColor=none;fontColor=#000000;" vertex="1" parent="1">
          <mxGeometry x="140" y="580" width="50" height="30" as="geometry" />
        </mxCell>
        <mxCell id="FKnu9fOOEgawx1uUUJKB-44" style="edgeStyle=orthogonalEdgeStyle;rounded=0;orthogonalLoop=1;jettySize=auto;html=1;fillColor=none;fontColor=#000000;" edge="1" parent="1" source="FKnu9fOOEgawx1uUUJKB-45" target="FKnu9fOOEgawx1uUUJKB-7">
          <mxGeometry relative="1" as="geometry" />
        </mxCell>
        <mxCell id="FKnu9fOOEgawx1uUUJKB-45" value="Unsqueeze" style="rounded=0;whiteSpace=wrap;html=1;fillColor=#FFFFFF;fontColor=#000000;" vertex="1" parent="1">
          <mxGeometry x="200" y="130" width="80" height="20" as="geometry" />
        </mxCell>
        <mxCell id="FKnu9fOOEgawx1uUUJKB-46" value="&lt;p&gt;&lt;font&gt;B×&lt;span style=&quot;background-color: transparent;&quot;&gt;1&lt;/span&gt;&lt;span style=&quot;background-color: transparent;&quot;&gt;×&lt;/span&gt;&lt;span style=&quot;background-color: transparent;&quot;&gt;T&lt;/span&gt;&lt;span style=&quot;background-color: transparent;&quot;&gt;×&lt;/span&gt;&lt;span style=&quot;background-color: transparent;&quot;&gt;F&lt;/span&gt;&lt;/font&gt;&lt;/p&gt;" style="text;html=1;align=center;verticalAlign=middle;whiteSpace=wrap;rounded=0;fillColor=none;fontColor=#000000;fontSize=9;" vertex="1" parent="1">
          <mxGeometry x="240" y="150" width="50" height="10" as="geometry" />
        </mxCell>
        <mxCell id="FKnu9fOOEgawx1uUUJKB-47" value="&lt;h3&gt;CNN&lt;/h3&gt;" style="text;html=1;align=center;verticalAlign=middle;whiteSpace=wrap;rounded=0;fontStyle=1;fillColor=none;fontColor=#000000;" vertex="1" parent="1">
          <mxGeometry x="90" y="370" width="50" height="30" as="geometry" />
        </mxCell>
        <mxCell id="FKnu9fOOEgawx1uUUJKB-48" value="&lt;h3&gt;FC&lt;/h3&gt;" style="text;html=1;align=center;verticalAlign=middle;whiteSpace=wrap;rounded=0;fontStyle=1;fillColor=none;fontColor=#000000;" vertex="1" parent="1">
          <mxGeometry x="460" y="595" width="40" height="30" as="geometry" />
        </mxCell>
        <mxCell id="FKnu9fOOEgawx1uUUJKB-49" value="" style="rounded=0;whiteSpace=wrap;html=1;align=center;fillColor=#FFFFFF;fontColor=#000000;" vertex="1" parent="1">
          <mxGeometry x="360" y="570" width="100" height="80" as="geometry" />
        </mxCell>
        <mxCell id="FKnu9fOOEgawx1uUUJKB-50" style="edgeStyle=orthogonalEdgeStyle;rounded=0;orthogonalLoop=1;jettySize=auto;html=1;fillColor=none;fontColor=#000000;" edge="1" parent="1" source="FKnu9fOOEgawx1uUUJKB-51" target="FKnu9fOOEgawx1uUUJKB-53">
          <mxGeometry relative="1" as="geometry" />
        </mxCell>
        <mxCell id="FKnu9fOOEgawx1uUUJKB-51" value="Linear" style="rounded=0;whiteSpace=wrap;html=1;fillColor=#FFFFFF;fontColor=#000000;" vertex="1" parent="1">
          <mxGeometry x="370" y="580" width="80" height="20" as="geometry" />
        </mxCell>
        <mxCell id="FKnu9fOOEgawx1uUUJKB-52" style="edgeStyle=orthogonalEdgeStyle;rounded=0;orthogonalLoop=1;jettySize=auto;html=1;exitX=0.5;exitY=1;exitDx=0;exitDy=0;fontColor=#000000;" edge="1" parent="1" source="FKnu9fOOEgawx1uUUJKB-53" target="FKnu9fOOEgawx1uUUJKB-66">
          <mxGeometry relative="1" as="geometry" />
        </mxCell>
        <mxCell id="FKnu9fOOEgawx1uUUJKB-53" value="Dropout" style="rounded=0;whiteSpace=wrap;html=1;fillColor=#FFFFFF;fontColor=#000000;" vertex="1" parent="1">
          <mxGeometry x="370" y="620" width="80" height="20" as="geometry" />
        </mxCell>
        <mxCell id="FKnu9fOOEgawx1uUUJKB-54" value="&lt;p&gt;&lt;font&gt;B×&lt;span style=&quot;background-color: transparent;&quot;&gt;T&lt;/span&gt;&lt;span style=&quot;background-color: transparent;&quot;&gt;×C&#39;&lt;/span&gt;&lt;/font&gt;&lt;/p&gt;" style="text;html=1;align=center;verticalAlign=middle;whiteSpace=wrap;rounded=0;fillColor=none;fontColor=#000000;fontSize=9;" vertex="1" parent="1">
          <mxGeometry x="410" y="600" width="50" height="20" as="geometry" />
        </mxCell>
        <mxCell id="FKnu9fOOEgawx1uUUJKB-55" style="edgeStyle=orthogonalEdgeStyle;rounded=0;orthogonalLoop=1;jettySize=auto;html=1;exitX=0.5;exitY=1;exitDx=0;exitDy=0;entryX=0.5;entryY=0;entryDx=0;entryDy=0;fillColor=none;fontColor=#000000;" edge="1" parent="1" source="FKnu9fOOEgawx1uUUJKB-56" target="FKnu9fOOEgawx1uUUJKB-58">
          <mxGeometry relative="1" as="geometry" />
        </mxCell>
        <mxCell id="FKnu9fOOEgawx1uUUJKB-56" value="Transpose" style="rounded=0;whiteSpace=wrap;html=1;fillColor=#FFFFFF;fontColor=#000000;" vertex="1" parent="1">
          <mxGeometry x="370" y="500" width="80" height="20" as="geometry" />
        </mxCell>
        <mxCell id="FKnu9fOOEgawx1uUUJKB-57" style="edgeStyle=orthogonalEdgeStyle;rounded=0;orthogonalLoop=1;jettySize=auto;html=1;exitX=0.5;exitY=1;exitDx=0;exitDy=0;entryX=0.5;entryY=0;entryDx=0;entryDy=0;fillColor=none;fontColor=#000000;" edge="1" parent="1" source="FKnu9fOOEgawx1uUUJKB-58" target="FKnu9fOOEgawx1uUUJKB-51">
          <mxGeometry relative="1" as="geometry" />
        </mxCell>
        <mxCell id="FKnu9fOOEgawx1uUUJKB-58" value="flatten" style="rounded=0;whiteSpace=wrap;html=1;fillColor=#FFFFFF;fontColor=#000000;" vertex="1" parent="1">
          <mxGeometry x="370" y="540" width="80" height="20" as="geometry" />
        </mxCell>
        <mxCell id="FKnu9fOOEgawx1uUUJKB-59" value="&lt;p&gt;&lt;font&gt;B×&lt;span style=&quot;background-color: transparent;&quot;&gt;T&lt;/span&gt;&lt;span style=&quot;background-color: transparent;&quot;&gt;×(2&lt;/span&gt;&lt;/font&gt;&lt;span style=&quot;background-color: transparent;&quot;&gt;C*&lt;/span&gt;&lt;span style=&quot;background-color: transparent;&quot;&gt;F//4)&lt;/span&gt;&lt;/p&gt;" style="text;html=1;align=center;verticalAlign=middle;whiteSpace=wrap;rounded=0;fillColor=none;fontColor=#000000;fontSize=9;" vertex="1" parent="1">
          <mxGeometry x="420" y="560" width="50" height="20" as="geometry" />
        </mxCell>
        <mxCell id="FKnu9fOOEgawx1uUUJKB-60" value="&lt;p&gt;&lt;font&gt;B×T&lt;span style=&quot;background-color: transparent;&quot;&gt;×2C&lt;/span&gt;&lt;/font&gt;&lt;span style=&quot;background-color: transparent;&quot;&gt;×(F//4)&lt;/span&gt;&lt;/p&gt;" style="text;html=1;align=center;verticalAlign=middle;whiteSpace=wrap;rounded=0;fillColor=none;fontColor=#000000;fontSize=9;" vertex="1" parent="1">
          <mxGeometry x="420" y="520" width="50" height="20" as="geometry" />
        </mxCell>
        <mxCell id="FKnu9fOOEgawx1uUUJKB-61" value="&lt;p&gt;&lt;font&gt;B&lt;span style=&quot;background-color: transparent;&quot;&gt;×&lt;/span&gt;&lt;span style=&quot;background-color: transparent;&quot;&gt;T&lt;/span&gt;&lt;span style=&quot;background-color: transparent;&quot;&gt;×&lt;/span&gt;&lt;span style=&quot;background-color: transparent;&quot;&gt;F&lt;/span&gt;&lt;/font&gt;&lt;/p&gt;" style="text;html=1;align=center;verticalAlign=middle;whiteSpace=wrap;rounded=0;fontColor=#000000;fontSize=9;" vertex="1" parent="1">
          <mxGeometry x="240" y="110" width="50" height="10" as="geometry" />
        </mxCell>
        <mxCell id="FKnu9fOOEgawx1uUUJKB-62" value="&lt;p&gt;&lt;font&gt;B×2C&lt;span style=&quot;background-color: transparent;&quot;&gt;×&lt;/span&gt;&lt;span style=&quot;background-color: transparent;&quot;&gt;T&lt;/span&gt;&lt;span style=&quot;background-color: transparent;&quot;&gt;×(&lt;/span&gt;&lt;span style=&quot;background-color: transparent;&quot;&gt;F//2)&lt;/span&gt;&lt;/font&gt;&lt;/p&gt;" style="text;html=1;align=center;verticalAlign=middle;whiteSpace=wrap;rounded=0;fillColor=none;fontColor=#000000;fontSize=9;" vertex="1" parent="1">
          <mxGeometry x="250" y="420" width="50" height="10" as="geometry" />
        </mxCell>
        <mxCell id="FKnu9fOOEgawx1uUUJKB-64" value="&lt;p&gt;&lt;font&gt;B×2C&lt;span style=&quot;background-color: transparent;&quot;&gt;×&lt;/span&gt;&lt;span style=&quot;background-color: transparent;&quot;&gt;T&lt;/span&gt;&lt;span style=&quot;background-color: transparent;&quot;&gt;×(&lt;/span&gt;&lt;span style=&quot;background-color: transparent;&quot;&gt;F//2)&lt;/span&gt;&lt;/font&gt;&lt;/p&gt;" style="text;html=1;align=center;verticalAlign=middle;whiteSpace=wrap;rounded=0;fillColor=none;fontColor=#000000;fontSize=9;" vertex="1" parent="1">
          <mxGeometry x="250" y="480" width="50" height="10" as="geometry" />
        </mxCell>
        <mxCell id="FKnu9fOOEgawx1uUUJKB-66" value="Output" style="rounded=0;whiteSpace=wrap;html=1;fillColor=#E6E6E6;fontColor=#000000;" vertex="1" parent="1">
          <mxGeometry x="370" y="670" width="80" height="20" as="geometry" />
        </mxCell>
        <mxCell id="FKnu9fOOEgawx1uUUJKB-67" value="&lt;h1&gt;ConvStack&lt;/h1&gt;" style="text;html=1;align=center;verticalAlign=middle;whiteSpace=wrap;rounded=0;fontStyle=1;fontColor=#000000;" vertex="1" parent="1">
          <mxGeometry x="60" y="30" width="480" height="40" as="geometry" />
        </mxCell>
        <mxCell id="FKnu9fOOEgawx1uUUJKB-68" value="&lt;h1&gt;BasicOnsetsAndFrames&lt;/h1&gt;" style="text;html=1;align=center;verticalAlign=middle;whiteSpace=wrap;rounded=0;fontStyle=1;fontColor=#000000;" vertex="1" parent="1">
          <mxGeometry x="590" y="150" width="305" height="40" as="geometry" />
        </mxCell>
        <mxCell id="FKnu9fOOEgawx1uUUJKB-69" value="" style="rounded=0;whiteSpace=wrap;html=1;align=center;fontColor=#000000;" vertex="1" parent="1">
          <mxGeometry x="780" y="310" width="100" height="140" as="geometry" />
        </mxCell>
        <mxCell id="FKnu9fOOEgawx1uUUJKB-70" style="edgeStyle=orthogonalEdgeStyle;rounded=0;orthogonalLoop=1;jettySize=auto;html=1;fontColor=#000000;" edge="1" parent="1" source="FKnu9fOOEgawx1uUUJKB-71" target="FKnu9fOOEgawx1uUUJKB-73">
          <mxGeometry relative="1" as="geometry" />
        </mxCell>
        <mxCell id="FKnu9fOOEgawx1uUUJKB-71" value="ConvStack" style="rounded=0;whiteSpace=wrap;html=1;fillColor=#FFE599;fontColor=#000000;" vertex="1" parent="1">
          <mxGeometry x="790" y="320" width="80" height="40" as="geometry" />
        </mxCell>
        <mxCell id="FKnu9fOOEgawx1uUUJKB-72" style="edgeStyle=orthogonalEdgeStyle;rounded=0;orthogonalLoop=1;jettySize=auto;html=1;entryX=0.5;entryY=0;entryDx=0;entryDy=0;fontColor=#000000;" edge="1" parent="1" source="FKnu9fOOEgawx1uUUJKB-73" target="FKnu9fOOEgawx1uUUJKB-75">
          <mxGeometry relative="1" as="geometry" />
        </mxCell>
        <mxCell id="FKnu9fOOEgawx1uUUJKB-73" value="Linear" style="rounded=0;whiteSpace=wrap;html=1;fontColor=#000000;" vertex="1" parent="1">
          <mxGeometry x="790" y="380" width="80" height="20" as="geometry" />
        </mxCell>
        <mxCell id="FKnu9fOOEgawx1uUUJKB-74" style="edgeStyle=orthogonalEdgeStyle;rounded=0;orthogonalLoop=1;jettySize=auto;html=1;fontColor=#000000;" edge="1" parent="1" source="FKnu9fOOEgawx1uUUJKB-75" target="FKnu9fOOEgawx1uUUJKB-85">
          <mxGeometry relative="1" as="geometry" />
        </mxCell>
        <mxCell id="FKnu9fOOEgawx1uUUJKB-75" value="Sigmoid" style="rounded=0;whiteSpace=wrap;html=1;fontColor=#000000;" vertex="1" parent="1">
          <mxGeometry x="790" y="420" width="80" height="20" as="geometry" />
        </mxCell>
        <mxCell id="FKnu9fOOEgawx1uUUJKB-76" style="edgeStyle=orthogonalEdgeStyle;rounded=0;orthogonalLoop=1;jettySize=auto;html=1;fontColor=#000000;" edge="1" parent="1" source="FKnu9fOOEgawx1uUUJKB-77" target="FKnu9fOOEgawx1uUUJKB-81">
          <mxGeometry relative="1" as="geometry" />
        </mxCell>
        <mxCell id="FKnu9fOOEgawx1uUUJKB-77" value="Input&lt;div&gt;&lt;font style=&quot;font-size: 9px;&quot;&gt;(Audio)&lt;/font&gt;&lt;/div&gt;" style="rounded=0;whiteSpace=wrap;html=1;fontStyle=0;fillColor=#E6E6E6;fontColor=#000000;" vertex="1" parent="1">
          <mxGeometry x="630" y="200" width="80" height="30" as="geometry" />
        </mxCell>
        <mxCell id="FKnu9fOOEgawx1uUUJKB-78" value="&lt;p&gt;&lt;font&gt;B×&lt;span style=&quot;background-color: transparent;&quot;&gt;T&lt;/span&gt;&lt;span style=&quot;background-color: transparent;&quot;&gt;×C&#39;&lt;/span&gt;&lt;/font&gt;&lt;/p&gt;" style="text;html=1;align=center;verticalAlign=middle;whiteSpace=wrap;rounded=0;fontColor=#000000;fontSize=9;" vertex="1" parent="1">
          <mxGeometry x="830" y="360" width="50" height="20" as="geometry" />
        </mxCell>
        <mxCell id="FKnu9fOOEgawx1uUUJKB-79" value="&lt;p&gt;&lt;font&gt;B&lt;span style=&quot;background-color: transparent;&quot;&gt;×&lt;/span&gt;&lt;span style=&quot;background-color: transparent;&quot;&gt;T&lt;/span&gt;&lt;span style=&quot;background-color: transparent;&quot;&gt;×C&quot;&lt;/span&gt;&lt;/font&gt;&lt;/p&gt;" style="text;html=1;align=center;verticalAlign=middle;whiteSpace=wrap;rounded=0;fontColor=#000000;fontSize=9;" vertex="1" parent="1">
          <mxGeometry x="830" y="400" width="50" height="20" as="geometry" />
        </mxCell>
        <mxCell id="FKnu9fOOEgawx1uUUJKB-80" style="edgeStyle=orthogonalEdgeStyle;rounded=0;orthogonalLoop=1;jettySize=auto;html=1;exitX=0.5;exitY=1;exitDx=0;exitDy=0;entryX=0.5;entryY=0;entryDx=0;entryDy=0;fontColor=#000000;" edge="1" parent="1" source="FKnu9fOOEgawx1uUUJKB-81" target="FKnu9fOOEgawx1uUUJKB-71">
          <mxGeometry relative="1" as="geometry" />
        </mxCell>
        <mxCell id="FKnu9fOOEgawx1uUUJKB-81" value="LogMel&lt;div&gt;Spectrogram&lt;/div&gt;" style="rounded=0;whiteSpace=wrap;html=1;fontColor=#000000;" vertex="1" parent="1">
          <mxGeometry x="630" y="250" width="80" height="30" as="geometry" />
        </mxCell>
        <mxCell id="FKnu9fOOEgawx1uUUJKB-82" value="&lt;p&gt;&lt;font&gt;B&lt;span style=&quot;background-color: transparent;&quot;&gt;×&lt;/span&gt;&lt;span style=&quot;background-color: transparent;&quot;&gt;T&lt;/span&gt;&lt;span style=&quot;background-color: transparent;&quot;&gt;×&lt;/span&gt;&lt;span style=&quot;background-color: transparent;&quot;&gt;F&lt;/span&gt;&lt;/font&gt;&lt;/p&gt;" style="text;html=1;align=center;verticalAlign=middle;whiteSpace=wrap;rounded=0;fontColor=#000000;fontSize=9;" vertex="1" parent="1">
          <mxGeometry x="670" y="280" width="50" height="20" as="geometry" />
        </mxCell>
        <mxCell id="FKnu9fOOEgawx1uUUJKB-83" value="&lt;h3&gt;Onset Stack&lt;/h3&gt;" style="text;html=1;align=center;verticalAlign=middle;whiteSpace=wrap;rounded=0;fontStyle=1;fontColor=#000000;" vertex="1" parent="1">
          <mxGeometry x="730" y="350" width="50" height="40" as="geometry" />
        </mxCell>
        <mxCell id="FKnu9fOOEgawx1uUUJKB-84" value="&lt;p&gt;&lt;font&gt;B×L&lt;/font&gt;&lt;/p&gt;" style="text;html=1;align=center;verticalAlign=middle;whiteSpace=wrap;rounded=0;fontColor=#000000;fontSize=9;" vertex="1" parent="1">
          <mxGeometry x="670" y="230" width="50" height="20" as="geometry" />
        </mxCell>
        <mxCell id="FKnu9fOOEgawx1uUUJKB-85" value="onset_pred" style="rounded=0;whiteSpace=wrap;html=1;fillColor=#E6E6E6;fontColor=#000000;" vertex="1" parent="1">
          <mxGeometry x="790" y="470" width="80" height="20" as="geometry" />
        </mxCell>
        <mxCell id="FKnu9fOOEgawx1uUUJKB-86" value="&lt;h3&gt;Frame Stack&lt;/h3&gt;" style="text;html=1;align=center;verticalAlign=middle;whiteSpace=wrap;rounded=0;fontStyle=1;fontColor=#000000;" vertex="1" parent="1">
          <mxGeometry x="570" y="350" width="50" height="40" as="geometry" />
        </mxCell>
        <mxCell id="FKnu9fOOEgawx1uUUJKB-87" value="" style="rounded=0;whiteSpace=wrap;html=1;align=center;fontColor=#000000;" vertex="1" parent="1">
          <mxGeometry x="620" y="310" width="100" height="140" as="geometry" />
        </mxCell>
        <mxCell id="FKnu9fOOEgawx1uUUJKB-88" value="" style="edgeStyle=orthogonalEdgeStyle;rounded=0;orthogonalLoop=1;jettySize=auto;html=1;entryX=0.5;entryY=0;entryDx=0;entryDy=0;fontColor=#000000;" edge="1" parent="1" source="FKnu9fOOEgawx1uUUJKB-89" target="FKnu9fOOEgawx1uUUJKB-91">
          <mxGeometry relative="1" as="geometry" />
        </mxCell>
        <mxCell id="FKnu9fOOEgawx1uUUJKB-89" value="ConvStack" style="rounded=0;whiteSpace=wrap;html=1;fillColor=#FFE599;fontColor=#000000;" vertex="1" parent="1">
          <mxGeometry x="630" y="320" width="80" height="40" as="geometry" />
        </mxCell>
        <mxCell id="FKnu9fOOEgawx1uUUJKB-90" style="edgeStyle=orthogonalEdgeStyle;rounded=0;orthogonalLoop=1;jettySize=auto;html=1;entryX=0.5;entryY=0;entryDx=0;entryDy=0;fontColor=#000000;" edge="1" parent="1" source="FKnu9fOOEgawx1uUUJKB-91" target="FKnu9fOOEgawx1uUUJKB-93">
          <mxGeometry relative="1" as="geometry" />
        </mxCell>
        <mxCell id="FKnu9fOOEgawx1uUUJKB-91" value="Linear" style="rounded=0;whiteSpace=wrap;html=1;fontColor=#000000;" vertex="1" parent="1">
          <mxGeometry x="630" y="380" width="80" height="20" as="geometry" />
        </mxCell>
        <mxCell id="FKnu9fOOEgawx1uUUJKB-92" style="edgeStyle=orthogonalEdgeStyle;rounded=0;orthogonalLoop=1;jettySize=auto;html=1;fontColor=#000000;" edge="1" parent="1" source="FKnu9fOOEgawx1uUUJKB-93" target="FKnu9fOOEgawx1uUUJKB-96">
          <mxGeometry relative="1" as="geometry" />
        </mxCell>
        <mxCell id="FKnu9fOOEgawx1uUUJKB-93" value="Sigmoid" style="rounded=0;whiteSpace=wrap;html=1;fontColor=#000000;" vertex="1" parent="1">
          <mxGeometry x="630" y="420" width="80" height="20" as="geometry" />
        </mxCell>
        <mxCell id="FKnu9fOOEgawx1uUUJKB-94" value="&lt;p&gt;&lt;font&gt;B×&lt;span style=&quot;background-color: transparent;&quot;&gt;T&lt;/span&gt;&lt;span style=&quot;background-color: transparent;&quot;&gt;×C&#39;&lt;/span&gt;&lt;/font&gt;&lt;/p&gt;" style="text;html=1;align=center;verticalAlign=middle;whiteSpace=wrap;rounded=0;fontColor=#000000;fontSize=9;" vertex="1" parent="1">
          <mxGeometry x="670" y="360" width="50" height="20" as="geometry" />
        </mxCell>
        <mxCell id="FKnu9fOOEgawx1uUUJKB-95" value="&lt;p&gt;&lt;font&gt;B×&lt;span style=&quot;background-color: transparent;&quot;&gt;T&lt;/span&gt;&lt;span style=&quot;background-color: transparent;&quot;&gt;×C&quot;&lt;/span&gt;&lt;/font&gt;&lt;/p&gt;" style="text;html=1;align=center;verticalAlign=middle;whiteSpace=wrap;rounded=0;fontColor=#000000;fontSize=9;" vertex="1" parent="1">
          <mxGeometry x="670" y="400" width="50" height="20" as="geometry" />
        </mxCell>
        <mxCell id="FKnu9fOOEgawx1uUUJKB-96" value="frame_pred" style="rounded=0;whiteSpace=wrap;html=1;fillColor=#E6E6E6;fontColor=#000000;" vertex="1" parent="1">
          <mxGeometry x="630" y="470" width="80" height="20" as="geometry" />
        </mxCell>
        <mxCell id="FKnu9fOOEgawx1uUUJKB-97" style="edgeStyle=orthogonalEdgeStyle;rounded=0;orthogonalLoop=1;jettySize=auto;html=1;fontColor=#000000;" edge="1" parent="1" source="FKnu9fOOEgawx1uUUJKB-81" target="FKnu9fOOEgawx1uUUJKB-89">
          <mxGeometry relative="1" as="geometry">
            <Array as="points">
              <mxPoint x="670" y="310" />
              <mxPoint x="670" y="310" />
            </Array>
          </mxGeometry>
        </mxCell>
        <mxCell id="FKnu9fOOEgawx1uUUJKB-98" value="" style="endArrow=none;dashed=1;html=1;dashPattern=1 3;strokeWidth=2;rounded=0;exitX=1;exitY=1;exitDx=0;exitDy=0;entryX=0;entryY=1;entryDx=0;entryDy=0;strokeColor=#999999;fontColor=#000000;" edge="1" parent="1" source="FKnu9fOOEgawx1uUUJKB-1" target="FKnu9fOOEgawx1uUUJKB-89">
          <mxGeometry width="50" height="50" relative="1" as="geometry">
            <mxPoint x="530" y="480" as="sourcePoint" />
            <mxPoint x="660" y="680" as="targetPoint" />
          </mxGeometry>
        </mxCell>
        <mxCell id="FKnu9fOOEgawx1uUUJKB-99" value="" style="endArrow=none;dashed=1;html=1;dashPattern=1 3;strokeWidth=2;rounded=0;exitX=1;exitY=0;exitDx=0;exitDy=0;entryX=0;entryY=0;entryDx=0;entryDy=0;strokeColor=#999999;fontColor=#000000;" edge="1" parent="1" source="FKnu9fOOEgawx1uUUJKB-1" target="FKnu9fOOEgawx1uUUJKB-89">
          <mxGeometry width="50" height="50" relative="1" as="geometry">
            <mxPoint x="620" y="360" as="sourcePoint" />
            <mxPoint x="670" y="310" as="targetPoint" />
          </mxGeometry>
        </mxCell>
        <mxCell id="FKnu9fOOEgawx1uUUJKB-100" value="&lt;p&gt;&lt;font&gt;B×&lt;span style=&quot;background-color: transparent;&quot;&gt;T&lt;/span&gt;&lt;span style=&quot;background-color: transparent;&quot;&gt;×C&quot;&lt;/span&gt;&lt;/font&gt;&lt;/p&gt;" style="text;html=1;align=center;verticalAlign=middle;whiteSpace=wrap;rounded=0;fontColor=#000000;fontSize=9;" vertex="1" parent="1">
          <mxGeometry x="670" y="490" width="50" height="20" as="geometry" />
        </mxCell>
        <mxCell id="FKnu9fOOEgawx1uUUJKB-101" value="&lt;p&gt;&lt;font&gt;B×&lt;span style=&quot;background-color: transparent;&quot;&gt;T&lt;/span&gt;&lt;span style=&quot;background-color: transparent;&quot;&gt;×C&quot;&lt;/span&gt;&lt;/font&gt;&lt;/p&gt;" style="text;html=1;align=center;verticalAlign=middle;whiteSpace=wrap;rounded=0;fontColor=#000000;fontSize=9;" vertex="1" parent="1">
          <mxGeometry x="830" y="490" width="50" height="20" as="geometry" />
        </mxCell>
        <mxCell id="FKnu9fOOEgawx1uUUJKB-105" value="&lt;p&gt;&lt;font&gt;B×&lt;span style=&quot;background-color: transparent;&quot;&gt;T&lt;/span&gt;&lt;span style=&quot;background-color: transparent;&quot;&gt;×C&#39;&lt;/span&gt;&lt;/font&gt;&lt;/p&gt;" style="text;html=1;align=center;verticalAlign=middle;whiteSpace=wrap;rounded=0;fillColor=none;fontColor=#000000;fontSize=9;" vertex="1" parent="1">
          <mxGeometry x="410" y="690" width="50" height="20" as="geometry" />
        </mxCell>
      </root>
    </mxGraphModel>
  </diagram>
</mxfile>
